solid OpenSCAD_Model
  facet normal -1 0 0
    outer loop
      vertex 0 0 0
      vertex 0 20 8
      vertex 0 20 0
    endloop
  endfacet
  facet normal -1 -0 0
    outer loop
      vertex 0 20 8
      vertex 0 0 0
      vertex 0 0 8
    endloop
  endfacet
  facet normal 0 0 1
    outer loop
      vertex 4 20 8
      vertex 0 20 8
      vertex 4 4 8
    endloop
  endfacet
  facet normal -0 0 1
    outer loop
      vertex 4 4 8
      vertex 20 0 8
      vertex 20 4 8
    endloop
  endfacet
  facet normal 0 0 1
    outer loop
      vertex 4 4 8
      vertex 0 0 8
      vertex 20 0 8
    endloop
  endfacet
  facet normal 0 0 1
    outer loop
      vertex 0 0 8
      vertex 4 4 8
      vertex 0 20 8
    endloop
  endfacet
  facet normal 1 -0 0
    outer loop
      vertex 4 4 8
      vertex 4 20 0
      vertex 4 20 8
    endloop
  endfacet
  facet normal 1 0 0
    outer loop
      vertex 4 20 0
      vertex 4 4 8
      vertex 4 4 0
    endloop
  endfacet
  facet normal 0 1 -0
    outer loop
      vertex 4 20 0
      vertex 0 20 8
      vertex 4 20 8
    endloop
  endfacet
  facet normal 0 1 0
    outer loop
      vertex 0 20 8
      vertex 4 20 0
      vertex 0 20 0
    endloop
  endfacet
  facet normal 0 0 -1
    outer loop
      vertex 20 0 0
      vertex 4 4 0
      vertex 20 4 0
    endloop
  endfacet
  facet normal 0 0 -1
    outer loop
      vertex 0 0 0
      vertex 4 4 0
      vertex 20 0 0
    endloop
  endfacet
  facet normal 0 0 -1
    outer loop
      vertex 0 20 0
      vertex 4 4 0
      vertex 0 0 0
    endloop
  endfacet
  facet normal 0 0 -1
    outer loop
      vertex 4 4 0
      vertex 0 20 0
      vertex 4 20 0
    endloop
  endfacet
  facet normal 0 -1 0
    outer loop
      vertex 0 0 0
      vertex 20 0 8
      vertex 0 0 8
    endloop
  endfacet
  facet normal 0 -1 -0
    outer loop
      vertex 20 0 8
      vertex 0 0 0
      vertex 20 0 0
    endloop
  endfacet
  facet normal 1 -0 0
    outer loop
      vertex 20 0 8
      vertex 20 4 0
      vertex 20 4 8
    endloop
  endfacet
  facet normal 1 0 0
    outer loop
      vertex 20 4 0
      vertex 20 0 8
      vertex 20 0 0
    endloop
  endfacet
  facet normal 0 1 -0
    outer loop
      vertex 20 4 0
      vertex 4 4 8
      vertex 20 4 8
    endloop
  endfacet
  facet normal 0 1 0
    outer loop
      vertex 4 4 8
      vertex 20 4 0
      vertex 4 4 0
    endloop
  endfacet
endsolid OpenSCAD_Model
