solid OpenSCAD_Model
  facet normal -1 0 0
    outer loop
      vertex -15 -15 -0.599999
      vertex -15 15 0.599999
      vertex -15 15 -0.599999
    endloop
  endfacet
  facet normal -1 -0 0
    outer loop
      vertex -15 15 0.599999
      vertex -15 -15 -0.599999
      vertex -15 -15 0.599999
    endloop
  endfacet
  facet normal 0 0 1
    outer loop
      vertex 15 15 0.599999
      vertex 5 5 0.599999
      vertex 15 -15 0.599999
    endloop
  endfacet
  facet normal 0 0 1
    outer loop
      vertex 15 15 0.599999
      vertex -5 5 0.599999
      vertex 5 5 0.599999
    endloop
  endfacet
  facet normal 0 0 1
    outer loop
      vertex -5 5 0.599999
      vertex -15 15 0.599999
      vertex -5 -5 0.599999
    endloop
  endfacet
  facet normal -0 0 1
    outer loop
      vertex -15 15 0.599999
      vertex -5 5 0.599999
      vertex 15 15 0.599999
    endloop
  endfacet
  facet normal -0 0 1
    outer loop
      vertex 5 -5 0.599999
      vertex 15 -15 0.599999
      vertex 5 5 0.599999
    endloop
  endfacet
  facet normal -0 0 1
    outer loop
      vertex -5 -5 0.599999
      vertex 15 -15 0.599999
      vertex 5 -5 0.599999
    endloop
  endfacet
  facet normal 0 0 1
    outer loop
      vertex -5 -5 0.599999
      vertex -15 -15 0.599999
      vertex 15 -15 0.599999
    endloop
  endfacet
  facet normal 0 0 1
    outer loop
      vertex -15 -15 0.599999
      vertex -5 -5 0.599999
      vertex -15 15 0.599999
    endloop
  endfacet
  facet normal 1 -0 0
    outer loop
      vertex 15 -15 0.599999
      vertex 15 15 -0.599999
      vertex 15 15 0.599999
    endloop
  endfacet
  facet normal 1 0 0
    outer loop
      vertex 15 15 -0.599999
      vertex 15 -15 0.599999
      vertex 15 -15 -0.599999
    endloop
  endfacet
  facet normal 0 1 -0
    outer loop
      vertex 15 15 -0.599999
      vertex -15 15 0.599999
      vertex 15 15 0.599999
    endloop
  endfacet
  facet normal 0 1 0
    outer loop
      vertex -15 15 0.599999
      vertex 15 15 -0.599999
      vertex -15 15 -0.599999
    endloop
  endfacet
  facet normal 0 0 -1
    outer loop
      vertex 15 -15 -0.599999
      vertex 3.63 -3.63 -0.599999
      vertex 15 15 -0.599999
    endloop
  endfacet
  facet normal 0 0 -1
    outer loop
      vertex 15 -15 -0.599999
      vertex -3.63 -3.63 -0.599999
      vertex 3.63 -3.63 -0.599999
    endloop
  endfacet
  facet normal -0 0 -1
    outer loop
      vertex -3.63 -3.63 -0.599999
      vertex -15 -15 -0.599999
      vertex -3.63 3.63 -0.599999
    endloop
  endfacet
  facet normal 0 0 -1
    outer loop
      vertex -15 -15 -0.599999
      vertex -3.63 -3.63 -0.599999
      vertex 15 -15 -0.599999
    endloop
  endfacet
  facet normal 0 0 -1
    outer loop
      vertex 3.63 3.63 -0.599999
      vertex 15 15 -0.599999
      vertex 3.63 -3.63 -0.599999
    endloop
  endfacet
  facet normal 0 0 -1
    outer loop
      vertex -3.63 3.63 -0.599999
      vertex 15 15 -0.599999
      vertex 3.63 3.63 -0.599999
    endloop
  endfacet
  facet normal 0 0 -1
    outer loop
      vertex -3.63 3.63 -0.599999
      vertex -15 15 -0.599999
      vertex 15 15 -0.599999
    endloop
  endfacet
  facet normal 0 0 -1
    outer loop
      vertex -15 15 -0.599999
      vertex -3.63 3.63 -0.599999
      vertex -15 -15 -0.599999
    endloop
  endfacet
  facet normal 0 -1 0
    outer loop
      vertex -15 -15 -0.599999
      vertex 15 -15 0.599999
      vertex -15 -15 0.599999
    endloop
  endfacet
  facet normal 0 -1 -0
    outer loop
      vertex 15 -15 0.599999
      vertex -15 -15 -0.599999
      vertex 15 -15 -0.599999
    endloop
  endfacet
  facet normal -1 0 0
    outer loop
      vertex -5 -5 0.599999
      vertex -5 5 5.5
      vertex -5 5 0.599999
    endloop
  endfacet
  facet normal -1 -0 0
    outer loop
      vertex -5 5 5.5
      vertex -5 -5 0.599999
      vertex -5 -5 5.5
    endloop
  endfacet
  facet normal 0 0 1
    outer loop
      vertex 4.71132 4.71132 6
      vertex 3.63 3.63 6
      vertex 4.71132 -4.71132 6
    endloop
  endfacet
  facet normal 0 0 1
    outer loop
      vertex 4.71132 4.71132 6
      vertex -3.63 3.63 6
      vertex 3.63 3.63 6
    endloop
  endfacet
  facet normal 0 0 1
    outer loop
      vertex -3.63 3.63 6
      vertex -4.71132 4.71132 6
      vertex -3.63 -3.63 6
    endloop
  endfacet
  facet normal -0 0 1
    outer loop
      vertex -4.71132 4.71132 6
      vertex -3.63 3.63 6
      vertex 4.71132 4.71132 6
    endloop
  endfacet
  facet normal -0 0 1
    outer loop
      vertex 3.63 -3.63 6
      vertex 4.71132 -4.71132 6
      vertex 3.63 3.63 6
    endloop
  endfacet
  facet normal -0 0 1
    outer loop
      vertex -3.63 -3.63 6
      vertex 4.71132 -4.71132 6
      vertex 3.63 -3.63 6
    endloop
  endfacet
  facet normal 0 0 1
    outer loop
      vertex -3.63 -3.63 6
      vertex -4.71132 -4.71132 6
      vertex 4.71132 -4.71132 6
    endloop
  endfacet
  facet normal 0 0 1
    outer loop
      vertex -4.71132 -4.71132 6
      vertex -3.63 -3.63 6
      vertex -4.71132 4.71132 6
    endloop
  endfacet
  facet normal 1 -0 0
    outer loop
      vertex 5 -5 5.5
      vertex 5 5 0.599999
      vertex 5 5 5.5
    endloop
  endfacet
  facet normal 1 0 0
    outer loop
      vertex 5 5 0.599999
      vertex 5 -5 5.5
      vertex 5 -5 0.599999
    endloop
  endfacet
  facet normal 0 1 -0
    outer loop
      vertex 5 5 0.599999
      vertex -5 5 5.5
      vertex 5 5 5.5
    endloop
  endfacet
  facet normal 0 1 0
    outer loop
      vertex -5 5 5.5
      vertex 5 5 0.599999
      vertex -5 5 0.599999
    endloop
  endfacet
  facet normal 0 -1 0
    outer loop
      vertex -5 -5 0.599999
      vertex 5 -5 5.5
      vertex -5 -5 5.5
    endloop
  endfacet
  facet normal 0 -1 -0
    outer loop
      vertex 5 -5 5.5
      vertex -5 -5 0.599999
      vertex 5 -5 0.599999
    endloop
  endfacet
  facet normal 0.866025 -0 0.5
    outer loop
      vertex 4.71132 -4.71132 6
      vertex 5 5 5.5
      vertex 4.71132 4.71132 6
    endloop
  endfacet
  facet normal 0.866025 0 0.5
    outer loop
      vertex 5 5 5.5
      vertex 4.71132 -4.71132 6
      vertex 5 -5 5.5
    endloop
  endfacet
  facet normal -0.866025 0 0.5
    outer loop
      vertex -5 5 5.5
      vertex -4.71132 -4.71132 6
      vertex -4.71132 4.71132 6
    endloop
  endfacet
  facet normal -0.866025 0 0.5
    outer loop
      vertex -4.71132 -4.71132 6
      vertex -5 5 5.5
      vertex -5 -5 5.5
    endloop
  endfacet
  facet normal 0 0.866025 0.5
    outer loop
      vertex 5 5 5.5
      vertex -4.71132 4.71132 6
      vertex 4.71132 4.71132 6
    endloop
  endfacet
  facet normal 0 0.866025 0.5
    outer loop
      vertex -4.71132 4.71132 6
      vertex 5 5 5.5
      vertex -5 5 5.5
    endloop
  endfacet
  facet normal 0 -0.866025 0.5
    outer loop
      vertex -5 -5 5.5
      vertex 4.71132 -4.71132 6
      vertex -4.71132 -4.71132 6
    endloop
  endfacet
  facet normal 0 -0.866025 0.5
    outer loop
      vertex 4.71132 -4.71132 6
      vertex -5 -5 5.5
      vertex 5 -5 5.5
    endloop
  endfacet
  facet normal 1 -0 0
    outer loop
      vertex -3.63 -3.63 6
      vertex -3.63 3.63 -0.599999
      vertex -3.63 3.63 6
    endloop
  endfacet
  facet normal 1 0 0
    outer loop
      vertex -3.63 3.63 -0.599999
      vertex -3.63 -3.63 6
      vertex -3.63 -3.63 -0.599999
    endloop
  endfacet
  facet normal -1 0 0
    outer loop
      vertex 3.63 -3.63 -0.599999
      vertex 3.63 3.63 6
      vertex 3.63 3.63 -0.599999
    endloop
  endfacet
  facet normal -1 -0 0
    outer loop
      vertex 3.63 3.63 6
      vertex 3.63 -3.63 -0.599999
      vertex 3.63 -3.63 6
    endloop
  endfacet
  facet normal 0 1 -0
    outer loop
      vertex 3.63 -3.63 -0.599999
      vertex -3.63 -3.63 6
      vertex 3.63 -3.63 6
    endloop
  endfacet
  facet normal 0 1 0
    outer loop
      vertex -3.63 -3.63 6
      vertex 3.63 -3.63 -0.599999
      vertex -3.63 -3.63 -0.599999
    endloop
  endfacet
  facet normal 0 -1 0
    outer loop
      vertex -3.63 3.63 -0.599999
      vertex 3.63 3.63 6
      vertex -3.63 3.63 6
    endloop
  endfacet
  facet normal 0 -1 -0
    outer loop
      vertex 3.63 3.63 6
      vertex -3.63 3.63 -0.599999
      vertex 3.63 3.63 -0.599999
    endloop
  endfacet
endsolid OpenSCAD_Model
